<svg width="24" height="24" viewBox="0 0 24 24" fill="none" xmlns="http://www.w3.org/2000/svg">
<path d="M14.9994 10.0002L10.9994 14.0002L8.99937 12.0002M13.2454 3.45919L14.4664 4.49919C14.7744 4.76119 15.1564 4.91919 15.5584 4.95219L17.1584 5.08019C17.6131 5.11651 18.0401 5.31357 18.3628 5.63607C18.6855 5.95858 18.8828 6.38544 18.9194 6.84019L19.0464 8.44019C19.0794 8.84319 19.2384 9.22619 19.5004 9.53319L20.5404 10.7532C20.8368 11.1007 20.9996 11.5425 20.9996 11.9992C20.9996 12.4559 20.8368 12.8977 20.5404 13.2452L19.5004 14.4662C19.2384 14.7742 19.0794 15.1562 19.0474 15.5592L18.9194 17.1592C18.8831 17.614 18.686 18.0409 18.3635 18.3636C18.041 18.6863 17.6141 18.8836 17.1594 18.9202L15.5594 19.0482C15.1565 19.0801 14.7741 19.2383 14.4664 19.5002L13.2454 20.5402C12.8979 20.8366 12.4561 20.9994 11.9994 20.9994C11.5426 20.9994 11.1009 20.8366 10.7534 20.5402L9.53337 19.5002C9.2254 19.2381 8.84253 19.0799 8.43937 19.0482L6.83937 18.9202C6.38446 18.8836 5.95746 18.6861 5.63494 18.3633C5.31241 18.0404 5.11545 17.6131 5.07937 17.1582L4.95137 15.5592C4.91898 15.1566 4.76046 14.7745 4.49837 14.4672L3.45837 13.2452C3.1625 12.8978 3 12.4565 3 12.0002C3 11.5439 3.1625 11.1025 3.45837 10.7552L4.49837 9.53319C4.76137 9.22519 4.91837 8.84319 4.95037 8.44019L5.07837 6.84119C5.11477 6.38595 5.31226 5.95859 5.63538 5.63584C5.9585 5.31309 6.38608 5.11609 6.84137 5.08019L8.43937 4.95319C8.8423 4.92101 9.2248 4.76248 9.53237 4.50019L10.7534 3.46019C11.1009 3.16379 11.5426 3.00098 11.9994 3.00098C12.4561 3.00098 12.8979 3.16279 13.2454 3.45919Z" stroke="#52525B" stroke-width="2" stroke-linecap="round" strokeLinejoin="round"/>
</svg>
