<svg width="19" height="19" viewBox="0 0 19 19" fill="none" xmlns="http://www.w3.org/2000/svg">
<g clip-path="url(#clip0_407_3325)">
<path d="M9.5 18.9992C14.7468 18.9992 19 14.746 19 9.49921C19 4.25362 14.7468 0 9.5 0C4.25323 0 0 4.25323 0 9.4996C0 14.746 4.25323 18.9992 9.5 18.9992Z" fill="#25B7D3"/>
<path d="M15.0271 8.80767V8.11694L9.50007 4.66211L3.97266 8.11655V8.80728H5.35451V13.6436H4.66378V14.3343H14.3364V13.6436H13.6456V8.80767H15.0271ZM7.42709 13.644V8.80767H8.46378V13.644H7.42709ZM10.5364 13.644V8.80767H11.5727V13.644H10.5364Z" fill="white"/>
<path d="M6.73565 8.80859H6.04492V13.6449H6.73565V8.80859Z" fill="#CFD3D4"/>
<path d="M6.04492 10.6385V8.80859H6.73565V11.3293L6.04492 10.6385Z" fill="#E2E4E5"/>
<path d="M9.84527 8.80859H9.15454V13.6449H9.84527V8.80859Z" fill="#CFD3D4"/>
<path d="M9.15454 10.6385V8.80859H9.84527V11.3293L9.15454 10.6385Z" fill="#E2E4E5"/>
<path d="M12.9544 8.80859H12.2637V13.6449H12.9544V8.80859Z" fill="#CFD3D4"/>
<path d="M12.2638 10.6376V8.8077H12.9545V11.3284L12.2638 10.6376ZM15.0271 14.3347H3.97266V15.0254H15.0271V14.3347ZM9.50007 5.69922L6.21822 7.7718H9.49968L9.50007 5.69922ZM9.50007 5.69922L12.7815 7.7718H9.49968L9.50007 5.69922Z" fill="#E2E4E5"/>
</g>
<defs>
<clipPath id="clip0_407_3325">
<rect width="19" height="19" fill="white"/>
</clipPath>
</defs>
</svg>
