<svg width="18" height="18" viewBox="0 0 18 18" fill="none" xmlns="http://www.w3.org/2000/svg">
<path d="M13.4325 3.7511L14.2275 4.54685L9.89475 8.8811C9.82532 8.95097 9.74277 9.00641 9.65183 9.04425C9.56089 9.08208 9.46337 9.10156 9.36487 9.10156C9.26638 9.10156 9.16886 9.08208 9.07792 9.04425C8.98698 9.00641 8.90443 8.95097 8.835 8.8811L4.5 4.54685L5.295 3.75185L9.36375 7.81985L13.4325 3.7511Z" fill="#414141"/>
<path d="M13.4325 8.2511L14.2275 9.04685L9.89475 13.3811C9.82532 13.451 9.74277 13.5064 9.65183 13.5442C9.56089 13.5821 9.46337 13.6016 9.36487 13.6016C9.26638 13.6016 9.16886 13.5821 9.07792 13.5442C8.98698 13.5064 8.90443 13.451 8.835 13.3811L4.5 9.04685L5.295 8.25185L9.36375 12.3198L13.4325 8.2511Z" fill="#414141"/>
</svg>
