<svg width="16" height="17" viewBox="0 0 16 17" fill="none" xmlns="http://www.w3.org/2000/svg">
<path d="M8.20047 2C11.0388 2 13.3405 3.90567 13.3405 6.25667C13.3405 8.60767 11.0395 10.038 8.20047 10.038C5.5038 9.98378 3.59347 9.13467 2.46947 7.49067C2.42927 7.43043 2.40137 7.36286 2.38735 7.29181C2.37334 7.22077 2.37349 7.14765 2.3878 7.07667C3.03047 3.86956 4.96802 2.17733 8.20047 2ZM8.00847 4.648C6.37625 4.81333 5.37747 5.59033 5.01214 6.979C5.50991 7.41789 6.5088 7.66144 8.0088 7.70967C9.51547 7.68633 10.4285 7.24667 10.4461 6.22567C10.3525 5.09767 9.2558 4.60533 8.00847 4.648Z" fill="#342E3F"/>
<path d="M2.13104 8.73633C2.97304 11.152 5.29538 12.4963 7.68238 12.4963C9.66238 12.4963 10.9744 11.6397 11.6624 10.3463L13.881 11.7363C13.1077 13.628 10.815 14.9997 8.10671 14.9997C4.76371 14.9997 1.90104 12.7463 2.13004 8.82933C2.13004 8.798 2.13038 8.76699 2.13104 8.73633Z" fill="#26B15D"/>
</svg>
