<svg width="34" height="11" viewBox="0 0 34 11" fill="none" xmlns="http://www.w3.org/2000/svg">
<g clip-path="url(#clip0_407_3303)">
<path d="M17.584 3.50158C17.5646 5.0278 18.947 5.87944 19.9884 6.38584C21.0584 6.90535 21.4177 7.23854 21.4135 7.70319C21.4055 8.41421 20.56 8.72804 19.7689 8.74023C18.3886 8.76157 17.586 8.36836 16.9479 8.07096L16.4507 10.3928C17.0908 10.6871 18.2762 10.9438 19.5054 10.9551C22.3907 10.9551 24.2784 9.53383 24.2886 7.33025C24.2999 4.5336 20.4121 4.3788 20.4387 3.12878C20.4478 2.74974 20.8103 2.34526 21.6045 2.24242C21.9976 2.19046 23.0828 2.1507 24.3132 2.71608L24.7961 0.469693C24.1344 0.229283 23.284 -0.000922203 22.2252 -0.000922203C19.5095 -0.000922203 17.5994 1.43968 17.584 3.50158ZM29.4363 0.192572C28.9094 0.192572 28.4654 0.499247 28.2673 0.969861L24.1457 10.7901H27.0289L27.6027 9.2078H31.1259L31.4588 10.7901H34L31.7824 0.192572H29.4363ZM29.8396 3.05536L30.6717 7.03484H28.3929L29.8396 3.05536ZM14.0882 0.192704L11.8155 10.7899H14.563L16.8346 0.192439L14.0882 0.192704ZM10.0238 0.192704L7.16404 7.40566L6.00724 1.27256C5.87151 0.58791 5.33548 0.192572 4.74021 0.192572H0.0654766L0 0.500307C0.959703 0.708114 2.05009 1.04328 2.7107 1.40191C3.11498 1.62098 3.23027 1.81249 3.36308 2.33307L5.55409 10.7901H8.4575L12.9088 0.192572L10.0238 0.192704Z" fill="url(#paint0_linear_407_3303)"/>
</g>
<defs>
<linearGradient id="paint0_linear_407_3303" x1="1563.12" y1="32.9328" x2="1594.76" y2="-1092.27" gradientUnits="userSpaceOnUse">
<stop stop-color="#222357"/>
<stop offset="1" stop-color="#254AA5"/>
</linearGradient>
<clipPath id="clip0_407_3303">
<rect width="34" height="11" fill="white"/>
</clipPath>
</defs>
</svg>
